<?xml version="1.0" encoding="utf-8"?>
<svg viewBox="0 0 64 64" xmlns="http://www.w3.org/2000/svg">
  <g id="Flat">
    <g id="Color">
      <polygon fill="#212529" points="45 17 32 25 19 17 19 3 45 3 45 17"/>
      <polygon points="40 3 40 20.08 32 25 24 20.08 24 3 40 3" style="fill: rgb(222, 54, 54);"/>
      <path d="M32,25l6.49-4a21.36,21.36,0,0,0-13,0Z" style="fill: rgb(179, 28, 28);"/>
      <circle cx="32" cy="41.5" r="19.5" style="fill: rgb(255, 0, 0);"/>
      <circle cx="32" cy="41.5" r="14.5" style="fill: rgb(143, 40, 40);"/>
      <g transform="matrix(0.001139, 0, 0, -0.001139, 25.429163, 48.037346)" fill="#000000" stroke="none" style="">
        <path d="M1435 11473 c-192 -27 -425 -131 -570 -256 -105 -91 -559 -552 -609 -618 -26 -35 -55 -73 -64 -84 -9 -11 -16 -22 -16 -25 0 -3 -19 -45 -42 -95 -72 -155 -104 -305 -104 -485 0 -244 74 -470 218 -666 41 -55 567 -588 1664 -1685 1813 -1813 1663 -1649 1663 -1819 0 -172 159 2 -1666 -1825 -890 -891 -1639 -1647 -1664 -1680 -60 -80 -138 -241 -168 -345 -40 -139 -50 -226 -44 -378 10 -232 74 -422 205 -608 28 -39 180 -201 339 -360 293 -295 367 -356 513 -429 263 -132 618 -151 895 -48 98 36 169 73 255 132 56 38 475 451 1695 1670 1834 1834 1659 1675 1835 1675 170 1 5 151 1820 -1663 1053 -1053 1632 -1625 1684 -1663 204 -152 448 -225 716 -215 231 8 399 63 596 193 117 77 650 609 728 727 126 190 185 371 193 597 10 268 -63 512 -215 716 -39 53 -604 625 -1664 1685 -1808 1808 -1663 1649 -1663 1814 0 71 5 103 24 150 22 57 93 130 1648 1686 1004 1005 1642 1650 1669 1690 49 69 124 215 148 289 41 124 51 194 51 365 0 154 -3 180 -28 280 -34 132 -114 302 -187 397 -62 82 -565 588 -652 656 -116 91 -257 158 -428 204 -73 19 -110 22 -260 23 -149 0 -188 -4 -265 -23 -117 -29 -229 -75 -335 -137 -80 -46 -182 -146 -1725 -1685 -1853 -1849 -1685 -1695 -1855 -1695 -170 0 -6 -150 -1818 1662 -963 963 -1633 1625 -1676 1657 -160 118 -322 187 -506 216 -63 9 -273 11 -335 3z" style="fill: rgb(255, 0, 0);"/>
      </g>
    </g>
  </g>
</svg>